<?xml version="1.0" encoding="iso-8859-1"?>
<!-- Uploaded to: SVG Repo, www.svgrepo.com, Generator: SVG Repo Mixer Tools -->
<svg fill="#000000" height="800px" width="800px" version="1.1" id="Layer_1" xmlns="http://www.w3.org/2000/svg" xmlns:xlink="http://www.w3.org/1999/xlink" 
	 viewBox="0 0 512.02 512.02" xml:space="preserve">
<g>
	<g>
		<path d="M499.288,192.02h-31.276v-35.78c0-11.028-8.764-20.22-19.788-20.22h-48.212V84.244c0-11.024-8.756-20.224-19.784-20.224
			h-67.616l-18.156-53.232C292.244,4.304,286.16,0,279.308,0c-1.752,0-3.488,0.312-5.156,0.88c-4.044,1.376-7.312,4.264-9.196,8.096
			c-1.892,3.836-2.172,8.068-0.792,12.116l14.652,42.928h-14.58c-11.02,0-20.224,9.2-20.224,20.224v3.776h-20.376l22.82-66.916
			c1.38-4.048,1.1-8.332-0.788-12.168c-1.888-3.832-5.156-6.68-9.196-8.048c-1.672-0.58-3.408-0.848-5.156-0.848
			c-6.852,0-12.936,4.364-15.148,10.852L189.74,88.428c-0.464-0.184-0.964-0.408-1.492-0.408h-47.996
			c-11.028,0-20.24,9.2-20.24,20.224v11.776H60.256c-11.024,0-20.244,9.192-20.244,20.22v51.78h-28.68
			c-6.612,0-11.32,5.4-11.32,12.016v16c0,5.288,3.124,9.74,7.892,11.332L25.232,476.38c1.404,19.648,18.4,35.64,38.1,35.64h383.96
			c19.696,0,36.86-15.992,38.264-35.636l17.864-245.012c4.76-1.588,8.588-6.044,8.588-11.332v-16
			C512.012,197.42,505.904,192.02,499.288,192.02z M120.012,464.016c0,8.816-7.18,15.996-16,15.996s-16-7.18-16-15.996V276.032
			c0-8.824,7.18-16,16-16s16,7.176,16,16V464.016z M196.012,464.016c0,8.816-7.18,15.996-16,15.996s-16-7.18-16-15.996V276.032
			c0-8.824,7.18-16,16-16s16,7.176,16,16V464.016z M272.012,464.016c0,8.816-7.18,15.996-16,15.996s-16-7.18-16-15.996V276.032
			c0-8.824,7.18-16,16-16s16,7.176,16,16V464.016z M348.012,464.016c0,8.816-7.18,15.996-16,15.996s-16-7.18-16-15.996V276.032
			c0-8.824,7.18-16,16-16s16,7.176,16,16V464.016z M424.012,464.016c0,8.816-7.18,15.996-16,15.996s-16-7.18-16-15.996V276.032
			c0-8.824,7.18-16,16-16s16,7.176,16,16V464.016z"/>
	</g>
</g>
</svg>